<?xml version="1.0" encoding="utf-8" standalone="no"?>
<!DOCTYPE svg PUBLIC "-//W3C//DTD SVG 1.1//EN"
  "http://www.w3.org/Graphics/SVG/1.1/DTD/svg11.dtd">
<svg xmlns:xlink="http://www.w3.org/1999/xlink" width="360pt" height="338.4pt" viewBox="0 0 360 338.4" xmlns="http://www.w3.org/2000/svg" version="1.1">
 <metadata>
  <rdf:RDF xmlns:dc="http://purl.org/dc/elements/1.1/" xmlns:cc="http://creativecommons.org/ns#" xmlns:rdf="http://www.w3.org/1999/02/22-rdf-syntax-ns#">
   <cc:Work>
    <dc:type rdf:resource="http://purl.org/dc/dcmitype/StillImage"/>
    <dc:date>2025-06-13T16:39:07.414554</dc:date>
    <dc:format>image/svg+xml</dc:format>
    <dc:creator>
     <cc:Agent>
      <dc:title>Matplotlib v3.10.3, https://matplotlib.org/</dc:title>
     </cc:Agent>
    </dc:creator>
   </cc:Work>
  </rdf:RDF>
 </metadata>
 <defs>
  <style type="text/css">*{stroke-linejoin: round; stroke-linecap: butt}</style>
 </defs>
 <g id="figure_1">
  <g id="patch_1">
   <path d="M 0 338.4 
L 360 338.4 
L 360 0 
L 0 0 
z
" style="fill: #ffffff"/>
  </g>
  <g id="axes_1">
   <g id="patch_2">
    <path d="M 43.04 132.37 
L 172.928947 132.37 
L 172.928947 11.34 
L 43.04 11.34 
z
" style="fill: #ffffff"/>
   </g>
   <g id="PathCollection_1">
    <defs>
     <path id="mb2e4c0989c" d="M 0 1.581139 
C 0.419323 1.581139 0.821528 1.41454 1.118034 1.118034 
C 1.41454 0.821528 1.581139 0.419323 1.581139 0 
C 1.581139 -0.419323 1.41454 -0.821528 1.118034 -1.118034 
C 0.821528 -1.41454 0.419323 -1.581139 0 -1.581139 
C -0.419323 -1.581139 -0.821528 -1.41454 -1.118034 -1.118034 
C -1.41454 -0.821528 -1.581139 -0.419323 -1.581139 0 
C -1.581139 0.419323 -1.41454 0.821528 -1.118034 1.118034 
C -0.821528 1.41454 -0.419323 1.581139 0 1.581139 
z
" style="stroke: #1f77b4"/>
    </defs>
    <g clip-path="url(#p654c8cf196)">
     <use xlink:href="#mb2e4c0989c" x="56.263384" y="120.247325" style="fill: #1f77b4; stroke: #1f77b4"/>
     <use xlink:href="#mb2e4c0989c" x="101.244429" y="34.85133" style="fill: #1f77b4; stroke: #1f77b4"/>
     <use xlink:href="#mb2e4c0989c" x="143.701029" y="52.331591" style="fill: #1f77b4; stroke: #1f77b4"/>
     <use xlink:href="#mb2e4c0989c" x="97.704919" y="58.536706" style="fill: #1f77b4; stroke: #1f77b4"/>
     <use xlink:href="#mb2e4c0989c" x="84.379558" y="48.926346" style="fill: #1f77b4; stroke: #1f77b4"/>
     <use xlink:href="#mb2e4c0989c" x="98.941362" y="64.060771" style="fill: #1f77b4; stroke: #1f77b4"/>
     <use xlink:href="#mb2e4c0989c" x="167.024904" y="59.066411" style="fill: #1f77b4; stroke: #1f77b4"/>
     <use xlink:href="#mb2e4c0989c" x="50.285098" y="58.612378" style="fill: #1f77b4; stroke: #1f77b4"/>
     <use xlink:href="#mb2e4c0989c" x="51.049242" y="80.368114" style="fill: #1f77b4; stroke: #1f77b4"/>
     <use xlink:href="#mb2e4c0989c" x="48.967997" y="71.325295" style="fill: #1f77b4; stroke: #1f77b4"/>
     <use xlink:href="#mb2e4c0989c" x="53.673245" y="88.048835" style="fill: #1f77b4; stroke: #1f77b4"/>
     <use xlink:href="#mb2e4c0989c" x="143.995273" y="85.89218" style="fill: #1f77b4; stroke: #1f77b4"/>
     <use xlink:href="#mb2e4c0989c" x="84.299063" y="16.841364" style="fill: #1f77b4; stroke: #1f77b4"/>
     <use xlink:href="#mb2e4c0989c" x="108.679301" y="75.638606" style="fill: #1f77b4; stroke: #1f77b4"/>
     <use xlink:href="#mb2e4c0989c" x="49.149928" y="101.404966" style="fill: #1f77b4; stroke: #1f77b4"/>
     <use xlink:href="#mb2e4c0989c" x="58.368103" y="72.687393" style="fill: #1f77b4; stroke: #1f77b4"/>
     <use xlink:href="#mb2e4c0989c" x="50.188716" y="123.160702" style="fill: #1f77b4; stroke: #1f77b4"/>
     <use xlink:href="#mb2e4c0989c" x="100.604395" y="63.68241" style="fill: #1f77b4; stroke: #1f77b4"/>
     <use xlink:href="#mb2e4c0989c" x="70.675546" y="39.429494" style="fill: #1f77b4; stroke: #1f77b4"/>
     <use xlink:href="#mb2e4c0989c" x="75.886456" y="55.736837" style="fill: #1f77b4; stroke: #1f77b4"/>
     <use xlink:href="#mb2e4c0989c" x="49.220071" y="90.470343" style="fill: #1f77b4; stroke: #1f77b4"/>
     <use xlink:href="#mb2e4c0989c" x="49.406394" y="83.205819" style="fill: #1f77b4; stroke: #1f77b4"/>
     <use xlink:href="#mb2e4c0989c" x="130.015591" y="40.678084" style="fill: #1f77b4; stroke: #1f77b4"/>
     <use xlink:href="#mb2e4c0989c" x="58.473487" y="59.142083" style="fill: #1f77b4; stroke: #1f77b4"/>
     <use xlink:href="#mb2e4c0989c" x="108.130907" y="65.839066" style="fill: #1f77b4; stroke: #1f77b4"/>
     <use xlink:href="#mb2e4c0989c" x="49.842122" y="73.557623" style="fill: #1f77b4; stroke: #1f77b4"/>
     <use xlink:href="#mb2e4c0989c" x="49.556346" y="79.649229" style="fill: #1f77b4; stroke: #1f77b4"/>
     <use xlink:href="#mb2e4c0989c" x="77.756687" y="39.429494" style="fill: #1f77b4; stroke: #1f77b4"/>
     <use xlink:href="#mb2e4c0989c" x="62.928301" y="58.68805" style="fill: #1f77b4; stroke: #1f77b4"/>
     <use xlink:href="#mb2e4c0989c" x="62.664395" y="36.402608" style="fill: #1f77b4; stroke: #1f77b4"/>
     <use xlink:href="#mb2e4c0989c" x="136.563336" y="40.753756" style="fill: #1f77b4; stroke: #1f77b4"/>
     <use xlink:href="#mb2e4c0989c" x="50.356466" y="52.82346" style="fill: #1f77b4; stroke: #1f77b4"/>
     <use xlink:href="#mb2e4c0989c" x="49.373608" y="86.989425" style="fill: #1f77b4; stroke: #1f77b4"/>
     <use xlink:href="#mb2e4c0989c" x="65.016357" y="55.396312" style="fill: #1f77b4; stroke: #1f77b4"/>
     <use xlink:href="#mb2e4c0989c" x="151.399746" y="18.165626" style="fill: #1f77b4; stroke: #1f77b4"/>
     <use xlink:href="#mb2e4c0989c" x="91.004106" y="74.617033" style="fill: #1f77b4; stroke: #1f77b4"/>
     <use xlink:href="#mb2e4c0989c" x="49.244051" y="95.918736" style="fill: #1f77b4; stroke: #1f77b4"/>
     <use xlink:href="#mb2e4c0989c" x="54.139417" y="89.410933" style="fill: #1f77b4; stroke: #1f77b4"/>
     <use xlink:href="#mb2e4c0989c" x="49.041968" y="104.015654" style="fill: #1f77b4; stroke: #1f77b4"/>
     <use xlink:href="#mb2e4c0989c" x="48.944043" y="126.868636" style="fill: #1f77b4; stroke: #1f77b4"/>
     <use xlink:href="#mb2e4c0989c" x="71.299847" y="61.941951" style="fill: #1f77b4; stroke: #1f77b4"/>
     <use xlink:href="#mb2e4c0989c" x="132.964276" y="48.547985" style="fill: #1f77b4; stroke: #1f77b4"/>
     <use xlink:href="#mb2e4c0989c" x="50.322165" y="120.39867" style="fill: #1f77b4; stroke: #1f77b4"/>
     <use xlink:href="#mb2e4c0989c" x="50.725896" y="46.050805" style="fill: #1f77b4; stroke: #1f77b4"/>
     <use xlink:href="#mb2e4c0989c" x="90.270128" y="77.038541" style="fill: #1f77b4; stroke: #1f77b4"/>
     <use xlink:href="#mb2e4c0989c" x="132.957491" y="45.937296" style="fill: #1f77b4; stroke: #1f77b4"/>
     <use xlink:href="#mb2e4c0989c" x="85.041504" y="65.876902" style="fill: #1f77b4; stroke: #1f77b4"/>
     <use xlink:href="#mb2e4c0989c" x="59.548781" y="68.828115" style="fill: #1f77b4; stroke: #1f77b4"/>
     <use xlink:href="#mb2e4c0989c" x="76.412108" y="39.278149" style="fill: #1f77b4; stroke: #1f77b4"/>
     <use xlink:href="#mb2e4c0989c" x="136.677856" y="38.710608" style="fill: #1f77b4; stroke: #1f77b4"/>
    </g>
   </g>
   <g id="matplotlib.axis_1">
    <g id="xtick_1">
     <g id="line2d_1">
      <defs>
       <path id="mb9153c5121" d="M 0 0 
L 0 3.5 
" style="stroke: #000000; stroke-width: 0.8"/>
      </defs>
      <g>
       <use xlink:href="#mb9153c5121" x="47.229349" y="132.37" style="stroke: #000000; stroke-width: 0.8"/>
      </g>
     </g>
     <g id="text_1">
      <!-- 0 -->
      <g transform="translate(44.604349 146.660938) scale(0.105 -0.105)">
       <defs>
        <path id="TimesNewRomanPSMT-30" d="M 231 2094 
Q 231 2819 450 3342 
Q 669 3866 1031 4122 
Q 1313 4325 1613 4325 
Q 2100 4325 2488 3828 
Q 2972 3213 2972 2159 
Q 2972 1422 2759 906 
Q 2547 391 2217 158 
Q 1888 -75 1581 -75 
Q 975 -75 572 641 
Q 231 1244 231 2094 
z
M 844 2016 
Q 844 1141 1059 588 
Q 1238 122 1591 122 
Q 1759 122 1940 273 
Q 2122 425 2216 781 
Q 2359 1319 2359 2297 
Q 2359 3022 2209 3506 
Q 2097 3866 1919 4016 
Q 1791 4119 1609 4119 
Q 1397 4119 1231 3928 
Q 1006 3669 925 3112 
Q 844 2556 844 2016 
z
" transform="scale(0.015625)"/>
       </defs>
       <use xlink:href="#TimesNewRomanPSMT-30"/>
      </g>
     </g>
    </g>
    <g id="xtick_2">
     <g id="line2d_2">
      <g>
       <use xlink:href="#mb9153c5121" x="110.904008" y="132.37" style="stroke: #000000; stroke-width: 0.8"/>
      </g>
     </g>
     <g id="text_2">
      <!-- 5 -->
      <g transform="translate(108.279008 146.660938) scale(0.105 -0.105)">
       <defs>
        <path id="TimesNewRomanPSMT-35" d="M 2778 4238 
L 2534 3706 
L 1259 3706 
L 981 3138 
Q 1809 3016 2294 2522 
Q 2709 2097 2709 1522 
Q 2709 1188 2573 903 
Q 2438 619 2231 419 
Q 2025 219 1772 97 
Q 1413 -75 1034 -75 
Q 653 -75 479 54 
Q 306 184 306 341 
Q 306 428 378 495 
Q 450 563 559 563 
Q 641 563 702 538 
Q 763 513 909 409 
Q 1144 247 1384 247 
Q 1750 247 2026 523 
Q 2303 800 2303 1197 
Q 2303 1581 2056 1914 
Q 1809 2247 1375 2428 
Q 1034 2569 447 2591 
L 1259 4238 
L 2778 4238 
z
" transform="scale(0.015625)"/>
       </defs>
       <use xlink:href="#TimesNewRomanPSMT-35"/>
      </g>
     </g>
    </g>
    <g id="text_3">
     <!-- lr -->
     <g transform="translate(104.777872 160.197891) scale(0.105 -0.105)">
      <defs>
       <path id="TimesNewRomanPSMT-6c" d="M 1184 4444 
L 1184 647 
Q 1184 378 1223 290 
Q 1263 203 1344 158 
Q 1425 113 1647 113 
L 1647 0 
L 244 0 
L 244 113 
Q 441 113 512 153 
Q 584 194 625 287 
Q 666 381 666 647 
L 666 3247 
Q 666 3731 644 3842 
Q 622 3953 573 3993 
Q 525 4034 450 4034 
Q 369 4034 244 3984 
L 191 4094 
L 1044 4444 
L 1184 4444 
z
" transform="scale(0.015625)"/>
       <path id="TimesNewRomanPSMT-72" d="M 1038 2947 
L 1038 2303 
Q 1397 2947 1775 2947 
Q 1947 2947 2059 2842 
Q 2172 2738 2172 2600 
Q 2172 2478 2090 2393 
Q 2009 2309 1897 2309 
Q 1788 2309 1652 2417 
Q 1516 2525 1450 2525 
Q 1394 2525 1328 2463 
Q 1188 2334 1038 2041 
L 1038 669 
Q 1038 431 1097 309 
Q 1138 225 1241 169 
Q 1344 113 1538 113 
L 1538 0 
L 72 0 
L 72 113 
Q 291 113 397 181 
Q 475 231 506 341 
Q 522 394 522 644 
L 522 1753 
Q 522 2253 501 2348 
Q 481 2444 426 2487 
Q 372 2531 291 2531 
Q 194 2531 72 2484 
L 41 2597 
L 906 2947 
L 1038 2947 
z
" transform="scale(0.015625)"/>
      </defs>
      <use xlink:href="#TimesNewRomanPSMT-6c"/>
      <use xlink:href="#TimesNewRomanPSMT-72" transform="translate(27.783203 0)"/>
     </g>
    </g>
    <g id="text_4">
     <!-- 1e−5 -->
     <g transform="translate(151.846916 159.197891) scale(0.105 -0.105)">
      <defs>
       <path id="TimesNewRomanPSMT-31" d="M 750 3822 
L 1781 4325 
L 1884 4325 
L 1884 747 
Q 1884 391 1914 303 
Q 1944 216 2037 169 
Q 2131 122 2419 116 
L 2419 0 
L 825 0 
L 825 116 
Q 1125 122 1212 167 
Q 1300 213 1334 289 
Q 1369 366 1369 747 
L 1369 3034 
Q 1369 3497 1338 3628 
Q 1316 3728 1258 3775 
Q 1200 3822 1119 3822 
Q 1003 3822 797 3725 
L 750 3822 
z
" transform="scale(0.015625)"/>
       <path id="TimesNewRomanPSMT-65" d="M 681 1784 
Q 678 1147 991 784 
Q 1303 422 1725 422 
Q 2006 422 2214 576 
Q 2422 731 2563 1106 
L 2659 1044 
Q 2594 616 2278 264 
Q 1963 -88 1488 -88 
Q 972 -88 605 314 
Q 238 716 238 1394 
Q 238 2128 614 2539 
Q 991 2950 1559 2950 
Q 2041 2950 2350 2633 
Q 2659 2316 2659 1784 
L 681 1784 
z
M 681 1966 
L 2006 1966 
Q 1991 2241 1941 2353 
Q 1863 2528 1708 2628 
Q 1553 2728 1384 2728 
Q 1125 2728 920 2526 
Q 716 2325 681 1966 
z
" transform="scale(0.015625)"/>
       <path id="TimesNewRomanPSMT-2212" d="M 3484 2000 
L 116 2000 
L 116 2256 
L 3484 2256 
L 3484 2000 
z
" transform="scale(0.015625)"/>
      </defs>
      <use xlink:href="#TimesNewRomanPSMT-31"/>
      <use xlink:href="#TimesNewRomanPSMT-65" transform="translate(50 0)"/>
      <use xlink:href="#TimesNewRomanPSMT-2212" transform="translate(94.384766 0)"/>
      <use xlink:href="#TimesNewRomanPSMT-35" transform="translate(150.78125 0)"/>
     </g>
    </g>
   </g>
   <g id="matplotlib.axis_2">
    <g id="ytick_1">
     <g id="line2d_3">
      <defs>
       <path id="mea8b143d61" d="M 0 0 
L -3.5 0 
" style="stroke: #000000; stroke-width: 0.8"/>
      </defs>
      <g>
       <use xlink:href="#mea8b143d61" x="43.04" y="117.523129" style="stroke: #000000; stroke-width: 0.8"/>
      </g>
     </g>
     <g id="text_5">
      <!-- 23 -->
      <g transform="translate(25.54 121.168597) scale(0.105 -0.105)">
       <defs>
        <path id="TimesNewRomanPSMT-32" d="M 2934 816 
L 2638 0 
L 138 0 
L 138 116 
Q 1241 1122 1691 1759 
Q 2141 2397 2141 2925 
Q 2141 3328 1894 3587 
Q 1647 3847 1303 3847 
Q 991 3847 742 3664 
Q 494 3481 375 3128 
L 259 3128 
Q 338 3706 661 4015 
Q 984 4325 1469 4325 
Q 1984 4325 2329 3994 
Q 2675 3663 2675 3213 
Q 2675 2891 2525 2569 
Q 2294 2063 1775 1497 
Q 997 647 803 472 
L 1909 472 
Q 2247 472 2383 497 
Q 2519 522 2628 598 
Q 2738 675 2819 816 
L 2934 816 
z
" transform="scale(0.015625)"/>
        <path id="TimesNewRomanPSMT-33" d="M 325 3431 
Q 506 3859 782 4092 
Q 1059 4325 1472 4325 
Q 1981 4325 2253 3994 
Q 2459 3747 2459 3466 
Q 2459 3003 1878 2509 
Q 2269 2356 2469 2072 
Q 2669 1788 2669 1403 
Q 2669 853 2319 450 
Q 1863 -75 997 -75 
Q 569 -75 414 31 
Q 259 138 259 259 
Q 259 350 332 419 
Q 406 488 509 488 
Q 588 488 669 463 
Q 722 447 909 348 
Q 1097 250 1169 231 
Q 1284 197 1416 197 
Q 1734 197 1970 444 
Q 2206 691 2206 1028 
Q 2206 1275 2097 1509 
Q 2016 1684 1919 1775 
Q 1784 1900 1550 2001 
Q 1316 2103 1072 2103 
L 972 2103 
L 972 2197 
Q 1219 2228 1467 2375 
Q 1716 2522 1828 2728 
Q 1941 2934 1941 3181 
Q 1941 3503 1739 3701 
Q 1538 3900 1238 3900 
Q 753 3900 428 3381 
L 325 3431 
z
" transform="scale(0.015625)"/>
       </defs>
       <use xlink:href="#TimesNewRomanPSMT-32"/>
       <use xlink:href="#TimesNewRomanPSMT-33" transform="translate(50 0)"/>
      </g>
     </g>
    </g>
    <g id="ytick_2">
     <g id="line2d_4">
      <g>
       <use xlink:href="#mea8b143d61" x="43.04" y="79.687065" style="stroke: #000000; stroke-width: 0.8"/>
      </g>
     </g>
     <g id="text_6">
      <!-- 24 -->
      <g transform="translate(25.54 83.332534) scale(0.105 -0.105)">
       <defs>
        <path id="TimesNewRomanPSMT-34" d="M 2978 1563 
L 2978 1119 
L 2409 1119 
L 2409 0 
L 1894 0 
L 1894 1119 
L 100 1119 
L 100 1519 
L 2066 4325 
L 2409 4325 
L 2409 1563 
L 2978 1563 
z
M 1894 1563 
L 1894 3666 
L 406 1563 
L 1894 1563 
z
" transform="scale(0.015625)"/>
       </defs>
       <use xlink:href="#TimesNewRomanPSMT-32"/>
       <use xlink:href="#TimesNewRomanPSMT-34" transform="translate(50 0)"/>
      </g>
     </g>
    </g>
    <g id="ytick_3">
     <g id="line2d_5">
      <g>
       <use xlink:href="#mea8b143d61" x="43.04" y="41.851002" style="stroke: #000000; stroke-width: 0.8"/>
      </g>
     </g>
     <g id="text_7">
      <!-- 25 -->
      <g transform="translate(25.54 45.49647) scale(0.105 -0.105)">
       <use xlink:href="#TimesNewRomanPSMT-32"/>
       <use xlink:href="#TimesNewRomanPSMT-35" transform="translate(50 0)"/>
      </g>
     </g>
    </g>
    <g id="text_8">
     <!-- mean_reward -->
     <g transform="translate(19.274297 100.423203) rotate(-90) scale(0.105 -0.105)">
      <defs>
       <path id="TimesNewRomanPSMT-6d" d="M 1050 2338 
Q 1363 2650 1419 2697 
Q 1559 2816 1721 2881 
Q 1884 2947 2044 2947 
Q 2313 2947 2506 2790 
Q 2700 2634 2766 2338 
Q 3088 2713 3309 2830 
Q 3531 2947 3766 2947 
Q 3994 2947 4170 2830 
Q 4347 2713 4450 2447 
Q 4519 2266 4519 1878 
L 4519 647 
Q 4519 378 4559 278 
Q 4591 209 4675 161 
Q 4759 113 4950 113 
L 4950 0 
L 3538 0 
L 3538 113 
L 3597 113 
Q 3781 113 3884 184 
Q 3956 234 3988 344 
Q 4000 397 4000 647 
L 4000 1878 
Q 4000 2228 3916 2372 
Q 3794 2572 3525 2572 
Q 3359 2572 3192 2489 
Q 3025 2406 2788 2181 
L 2781 2147 
L 2788 2013 
L 2788 647 
Q 2788 353 2820 281 
Q 2853 209 2943 161 
Q 3034 113 3253 113 
L 3253 0 
L 1806 0 
L 1806 113 
Q 2044 113 2133 169 
Q 2222 225 2256 338 
Q 2272 391 2272 647 
L 2272 1878 
Q 2272 2228 2169 2381 
Q 2031 2581 1784 2581 
Q 1616 2581 1450 2491 
Q 1191 2353 1050 2181 
L 1050 647 
Q 1050 366 1089 281 
Q 1128 197 1204 155 
Q 1281 113 1516 113 
L 1516 0 
L 100 0 
L 100 113 
Q 297 113 375 155 
Q 453 197 493 289 
Q 534 381 534 647 
L 534 1741 
Q 534 2213 506 2350 
Q 484 2453 437 2492 
Q 391 2531 309 2531 
Q 222 2531 100 2484 
L 53 2597 
L 916 2947 
L 1050 2947 
L 1050 2338 
z
" transform="scale(0.015625)"/>
       <path id="TimesNewRomanPSMT-61" d="M 1822 413 
Q 1381 72 1269 19 
Q 1100 -59 909 -59 
Q 613 -59 420 144 
Q 228 347 228 678 
Q 228 888 322 1041 
Q 450 1253 767 1440 
Q 1084 1628 1822 1897 
L 1822 2009 
Q 1822 2438 1686 2597 
Q 1550 2756 1291 2756 
Q 1094 2756 978 2650 
Q 859 2544 859 2406 
L 866 2225 
Q 866 2081 792 2003 
Q 719 1925 600 1925 
Q 484 1925 411 2006 
Q 338 2088 338 2228 
Q 338 2497 613 2722 
Q 888 2947 1384 2947 
Q 1766 2947 2009 2819 
Q 2194 2722 2281 2516 
Q 2338 2381 2338 1966 
L 2338 994 
Q 2338 584 2353 492 
Q 2369 400 2405 369 
Q 2441 338 2488 338 
Q 2538 338 2575 359 
Q 2641 400 2828 588 
L 2828 413 
Q 2478 -56 2159 -56 
Q 2006 -56 1915 50 
Q 1825 156 1822 413 
z
M 1822 616 
L 1822 1706 
Q 1350 1519 1213 1441 
Q 966 1303 859 1153 
Q 753 1003 753 825 
Q 753 600 887 451 
Q 1022 303 1197 303 
Q 1434 303 1822 616 
z
" transform="scale(0.015625)"/>
       <path id="TimesNewRomanPSMT-6e" d="M 1034 2341 
Q 1538 2947 1994 2947 
Q 2228 2947 2397 2830 
Q 2566 2713 2666 2444 
Q 2734 2256 2734 1869 
L 2734 647 
Q 2734 375 2778 278 
Q 2813 200 2889 156 
Q 2966 113 3172 113 
L 3172 0 
L 1756 0 
L 1756 113 
L 1816 113 
Q 2016 113 2095 173 
Q 2175 234 2206 353 
Q 2219 400 2219 647 
L 2219 1819 
Q 2219 2209 2117 2386 
Q 2016 2563 1775 2563 
Q 1403 2563 1034 2156 
L 1034 647 
Q 1034 356 1069 288 
Q 1113 197 1189 155 
Q 1266 113 1500 113 
L 1500 0 
L 84 0 
L 84 113 
L 147 113 
Q 366 113 442 223 
Q 519 334 519 647 
L 519 1709 
Q 519 2225 495 2337 
Q 472 2450 423 2490 
Q 375 2531 294 2531 
Q 206 2531 84 2484 
L 38 2597 
L 900 2947 
L 1034 2947 
L 1034 2341 
z
" transform="scale(0.015625)"/>
       <path id="TimesNewRomanPSMT-5f" d="M 3256 -1381 
L -53 -1381 
L -53 -1119 
L 3256 -1119 
L 3256 -1381 
z
" transform="scale(0.015625)"/>
       <path id="TimesNewRomanPSMT-77" d="M 41 2863 
L 1241 2863 
L 1241 2747 
Q 1075 2734 1023 2687 
Q 972 2641 972 2553 
Q 972 2456 1025 2319 
L 1638 672 
L 2253 2013 
L 2091 2434 
Q 2016 2622 1894 2694 
Q 1825 2738 1638 2747 
L 1638 2863 
L 3000 2863 
L 3000 2747 
Q 2775 2738 2681 2666 
Q 2619 2616 2619 2506 
Q 2619 2444 2644 2378 
L 3294 734 
L 3897 2319 
Q 3959 2488 3959 2588 
Q 3959 2647 3898 2694 
Q 3838 2741 3659 2747 
L 3659 2863 
L 4563 2863 
L 4563 2747 
Q 4291 2706 4163 2378 
L 3206 -88 
L 3078 -88 
L 2363 1741 
L 1528 -88 
L 1413 -88 
L 494 2319 
Q 403 2547 315 2626 
Q 228 2706 41 2747 
L 41 2863 
z
" transform="scale(0.015625)"/>
       <path id="TimesNewRomanPSMT-64" d="M 2222 322 
Q 2013 103 1813 7 
Q 1613 -88 1381 -88 
Q 913 -88 563 304 
Q 213 697 213 1313 
Q 213 1928 600 2439 
Q 988 2950 1597 2950 
Q 1975 2950 2222 2709 
L 2222 3238 
Q 2222 3728 2198 3840 
Q 2175 3953 2125 3993 
Q 2075 4034 2000 4034 
Q 1919 4034 1784 3984 
L 1744 4094 
L 2597 4444 
L 2738 4444 
L 2738 1134 
Q 2738 631 2761 520 
Q 2784 409 2836 365 
Q 2888 322 2956 322 
Q 3041 322 3181 375 
L 3216 266 
L 2366 -88 
L 2222 -88 
L 2222 322 
z
M 2222 541 
L 2222 2016 
Q 2203 2228 2109 2403 
Q 2016 2578 1861 2667 
Q 1706 2756 1559 2756 
Q 1284 2756 1069 2509 
Q 784 2184 784 1559 
Q 784 928 1059 592 
Q 1334 256 1672 256 
Q 1956 256 2222 541 
z
" transform="scale(0.015625)"/>
      </defs>
      <use xlink:href="#TimesNewRomanPSMT-6d"/>
      <use xlink:href="#TimesNewRomanPSMT-65" transform="translate(77.783203 0)"/>
      <use xlink:href="#TimesNewRomanPSMT-61" transform="translate(122.167969 0)"/>
      <use xlink:href="#TimesNewRomanPSMT-6e" transform="translate(166.552734 0)"/>
      <use xlink:href="#TimesNewRomanPSMT-5f" transform="translate(216.552734 0)"/>
      <use xlink:href="#TimesNewRomanPSMT-72" transform="translate(266.552734 0)"/>
      <use xlink:href="#TimesNewRomanPSMT-65" transform="translate(299.853516 0)"/>
      <use xlink:href="#TimesNewRomanPSMT-77" transform="translate(344.238281 0)"/>
      <use xlink:href="#TimesNewRomanPSMT-61" transform="translate(416.455078 0)"/>
      <use xlink:href="#TimesNewRomanPSMT-72" transform="translate(460.839844 0)"/>
      <use xlink:href="#TimesNewRomanPSMT-64" transform="translate(494.140625 0)"/>
     </g>
    </g>
   </g>
   <g id="line2d_6">
    <path d="M 48.944043 126.868636 
L 48.967997 97.361236 
L 49.041968 99.862051 
L 49.149928 100.322918 
L 49.220071 97.831111 
L 49.244051 97.40508 
L 49.373608 95.305453 
L 49.406394 93.055239 
L 49.556346 90.721528 
L 49.842122 87.893251 
L 50.188716 93.443058 
L 50.285098 88.171355 
L 50.322165 92.88999 
L 50.356466 87.187617 
L 50.725896 81.473908 
L 51.049242 81.323514 
L 53.673245 82.221705 
L 54.139417 83.166819 
L 56.263384 87.975086 
L 58.368103 86.016268 
L 58.473487 82.608592 
L 59.548781 80.877063 
L 62.664395 75.333181 
L 62.928301 73.272748 
L 65.016357 71.073399 
L 70.675546 67.201076 
L 71.299847 66.560534 
L 75.886456 65.247694 
L 76.412108 62.10921 
L 77.756687 59.377068 
L 84.299063 54.267354 
L 84.379558 53.627339 
L 85.041504 55.092011 
L 90.270128 57.711108 
L 91.004106 59.725251 
L 97.704919 59.58386 
L 98.941362 60.115739 
L 100.604395 60.538986 
L 101.244429 57.493806 
L 108.130907 58.482218 
L 108.679301 60.512609 
L 130.015591 58.166911 
L 132.957491 56.721486 
L 132.964276 55.75598 
L 136.563336 53.984671 
L 136.677856 52.182028 
L 143.701029 52.199673 
L 143.995273 56.17327 
L 151.399746 51.692058 
L 167.024904 52.561293 
" clip-path="url(#p654c8cf196)" style="fill: none; stroke: #ffa500; stroke-width: 1.5; stroke-linecap: square"/>
   </g>
   <g id="patch_3">
    <path d="M 43.04 132.37 
L 43.04 11.34 
" style="fill: none; stroke: #000000; stroke-width: 0.8; stroke-linejoin: miter; stroke-linecap: square"/>
   </g>
   <g id="patch_4">
    <path d="M 172.928947 132.37 
L 172.928947 11.34 
" style="fill: none; stroke: #000000; stroke-width: 0.8; stroke-linejoin: miter; stroke-linecap: square"/>
   </g>
   <g id="patch_5">
    <path d="M 43.04 132.37 
L 172.928947 132.37 
" style="fill: none; stroke: #000000; stroke-width: 0.8; stroke-linejoin: miter; stroke-linecap: square"/>
   </g>
   <g id="patch_6">
    <path d="M 43.04 11.34 
L 172.928947 11.34 
" style="fill: none; stroke: #000000; stroke-width: 0.8; stroke-linejoin: miter; stroke-linecap: square"/>
   </g>
   <g id="legend_1">
    <g id="patch_7">
     <path d="M 114.489885 127.12 
L 165.578947 127.12 
Q 167.678947 127.12 167.678947 125.02 
L 167.678947 111.223984 
Q 167.678947 109.123984 165.578947 109.123984 
L 114.489885 109.123984 
Q 112.389885 109.123984 112.389885 111.223984 
L 112.389885 125.02 
Q 112.389885 127.12 114.489885 127.12 
z
" style="fill: #ffffff; opacity: 0.8; stroke: #cccccc; stroke-linejoin: miter"/>
    </g>
    <g id="line2d_7">
     <path d="M 116.589885 116.998984 
L 127.089885 116.998984 
L 137.589885 116.998984 
" style="fill: none; stroke: #ffa500; stroke-width: 1.5; stroke-linecap: square"/>
    </g>
    <g id="text_9">
     <!-- ema -->
     <g transform="translate(145.989885 120.673984) scale(0.105 -0.105)">
      <use xlink:href="#TimesNewRomanPSMT-65"/>
      <use xlink:href="#TimesNewRomanPSMT-6d" transform="translate(44.384766 0)"/>
      <use xlink:href="#TimesNewRomanPSMT-61" transform="translate(122.167969 0)"/>
     </g>
    </g>
   </g>
  </g>
  <g id="axes_2">
   <g id="patch_8">
    <path d="M 218.771053 132.37 
L 348.66 132.37 
L 348.66 11.34 
L 218.771053 11.34 
z
" style="fill: #ffffff"/>
   </g>
   <g id="PathCollection_2">
    <g clip-path="url(#pef87360054)">
     <use xlink:href="#mb2e4c0989c" x="307.29079" y="120.247325" style="fill: #1f77b4; stroke: #1f77b4"/>
     <use xlink:href="#mb2e4c0989c" x="335.980328" y="34.85133" style="fill: #1f77b4; stroke: #1f77b4"/>
     <use xlink:href="#mb2e4c0989c" x="267.669702" y="52.331591" style="fill: #1f77b4; stroke: #1f77b4"/>
     <use xlink:href="#mb2e4c0989c" x="295.521695" y="58.536706" style="fill: #1f77b4; stroke: #1f77b4"/>
     <use xlink:href="#mb2e4c0989c" x="239.467934" y="48.926346" style="fill: #1f77b4; stroke: #1f77b4"/>
     <use xlink:href="#mb2e4c0989c" x="314.684855" y="64.060771" style="fill: #1f77b4; stroke: #1f77b4"/>
     <use xlink:href="#mb2e4c0989c" x="231.783749" y="59.066411" style="fill: #1f77b4; stroke: #1f77b4"/>
     <use xlink:href="#mb2e4c0989c" x="229.62168" y="58.612378" style="fill: #1f77b4; stroke: #1f77b4"/>
     <use xlink:href="#mb2e4c0989c" x="262.407358" y="80.368114" style="fill: #1f77b4; stroke: #1f77b4"/>
     <use xlink:href="#mb2e4c0989c" x="254.784283" y="71.325295" style="fill: #1f77b4; stroke: #1f77b4"/>
     <use xlink:href="#mb2e4c0989c" x="278.500901" y="88.048835" style="fill: #1f77b4; stroke: #1f77b4"/>
     <use xlink:href="#mb2e4c0989c" x="302.170141" y="85.89218" style="fill: #1f77b4; stroke: #1f77b4"/>
     <use xlink:href="#mb2e4c0989c" x="306.290555" y="16.841364" style="fill: #1f77b4; stroke: #1f77b4"/>
     <use xlink:href="#mb2e4c0989c" x="230.029326" y="75.638606" style="fill: #1f77b4; stroke: #1f77b4"/>
     <use xlink:href="#mb2e4c0989c" x="264.874786" y="101.404966" style="fill: #1f77b4; stroke: #1f77b4"/>
     <use xlink:href="#mb2e4c0989c" x="233.318439" y="72.687393" style="fill: #1f77b4; stroke: #1f77b4"/>
     <use xlink:href="#mb2e4c0989c" x="311.579296" y="123.160702" style="fill: #1f77b4; stroke: #1f77b4"/>
     <use xlink:href="#mb2e4c0989c" x="336.625924" y="63.68241" style="fill: #1f77b4; stroke: #1f77b4"/>
     <use xlink:href="#mb2e4c0989c" x="251.588139" y="39.429494" style="fill: #1f77b4; stroke: #1f77b4"/>
     <use xlink:href="#mb2e4c0989c" x="224.675096" y="55.736837" style="fill: #1f77b4; stroke: #1f77b4"/>
     <use xlink:href="#mb2e4c0989c" x="259.419421" y="90.470343" style="fill: #1f77b4; stroke: #1f77b4"/>
     <use xlink:href="#mb2e4c0989c" x="266.148254" y="83.205819" style="fill: #1f77b4; stroke: #1f77b4"/>
     <use xlink:href="#mb2e4c0989c" x="333.339799" y="40.678084" style="fill: #1f77b4; stroke: #1f77b4"/>
     <use xlink:href="#mb2e4c0989c" x="338.35903" y="59.142083" style="fill: #1f77b4; stroke: #1f77b4"/>
     <use xlink:href="#mb2e4c0989c" x="248.592733" y="65.839066" style="fill: #1f77b4; stroke: #1f77b4"/>
     <use xlink:href="#mb2e4c0989c" x="341.128557" y="73.557623" style="fill: #1f77b4; stroke: #1f77b4"/>
     <use xlink:href="#mb2e4c0989c" x="273.17775" y="79.649229" style="fill: #1f77b4; stroke: #1f77b4"/>
     <use xlink:href="#mb2e4c0989c" x="270.457363" y="39.429494" style="fill: #1f77b4; stroke: #1f77b4"/>
     <use xlink:href="#mb2e4c0989c" x="236.278946" y="58.68805" style="fill: #1f77b4; stroke: #1f77b4"/>
     <use xlink:href="#mb2e4c0989c" x="241.539729" y="36.402608" style="fill: #1f77b4; stroke: #1f77b4"/>
     <use xlink:href="#mb2e4c0989c" x="275.875604" y="40.753756" style="fill: #1f77b4; stroke: #1f77b4"/>
     <use xlink:href="#mb2e4c0989c" x="305.436598" y="52.82346" style="fill: #1f77b4; stroke: #1f77b4"/>
     <use xlink:href="#mb2e4c0989c" x="255.365884" y="86.989425" style="fill: #1f77b4; stroke: #1f77b4"/>
     <use xlink:href="#mb2e4c0989c" x="341.801713" y="55.396312" style="fill: #1f77b4; stroke: #1f77b4"/>
     <use xlink:href="#mb2e4c0989c" x="228.530733" y="18.165626" style="fill: #1f77b4; stroke: #1f77b4"/>
     <use xlink:href="#mb2e4c0989c" x="316.258084" y="74.617033" style="fill: #1f77b4; stroke: #1f77b4"/>
     <use xlink:href="#mb2e4c0989c" x="338.42282" y="95.918736" style="fill: #1f77b4; stroke: #1f77b4"/>
     <use xlink:href="#mb2e4c0989c" x="256.66982" y="89.410933" style="fill: #1f77b4; stroke: #1f77b4"/>
     <use xlink:href="#mb2e4c0989c" x="330.856942" y="104.015654" style="fill: #1f77b4; stroke: #1f77b4"/>
     <use xlink:href="#mb2e4c0989c" x="264.330303" y="126.868636" style="fill: #1f77b4; stroke: #1f77b4"/>
     <use xlink:href="#mb2e4c0989c" x="342.755957" y="61.941951" style="fill: #1f77b4; stroke: #1f77b4"/>
     <use xlink:href="#mb2e4c0989c" x="238.516985" y="48.547985" style="fill: #1f77b4; stroke: #1f77b4"/>
     <use xlink:href="#mb2e4c0989c" x="284.544473" y="120.39867" style="fill: #1f77b4; stroke: #1f77b4"/>
     <use xlink:href="#mb2e4c0989c" x="316.95939" y="46.050805" style="fill: #1f77b4; stroke: #1f77b4"/>
     <use xlink:href="#mb2e4c0989c" x="290.628626" y="77.038541" style="fill: #1f77b4; stroke: #1f77b4"/>
     <use xlink:href="#mb2e4c0989c" x="296.505005" y="45.937296" style="fill: #1f77b4; stroke: #1f77b4"/>
     <use xlink:href="#mb2e4c0989c" x="287.36438" y="65.876902" style="fill: #1f77b4; stroke: #1f77b4"/>
     <use xlink:href="#mb2e4c0989c" x="294.763533" y="68.828115" style="fill: #1f77b4; stroke: #1f77b4"/>
     <use xlink:href="#mb2e4c0989c" x="301.390914" y="39.278149" style="fill: #1f77b4; stroke: #1f77b4"/>
     <use xlink:href="#mb2e4c0989c" x="342.288796" y="38.710608" style="fill: #1f77b4; stroke: #1f77b4"/>
    </g>
   </g>
   <g id="matplotlib.axis_3">
    <g id="xtick_3">
     <g id="line2d_8">
      <g>
       <use xlink:href="#mb9153c5121" x="260.947646" y="132.37" style="stroke: #000000; stroke-width: 0.8"/>
      </g>
     </g>
     <g id="text_10">
      <!-- 0.02 -->
      <g transform="translate(251.760146 146.660938) scale(0.105 -0.105)">
       <defs>
        <path id="TimesNewRomanPSMT-2e" d="M 800 606 
Q 947 606 1047 504 
Q 1147 403 1147 259 
Q 1147 116 1045 14 
Q 944 -88 800 -88 
Q 656 -88 554 14 
Q 453 116 453 259 
Q 453 406 554 506 
Q 656 606 800 606 
z
" transform="scale(0.015625)"/>
       </defs>
       <use xlink:href="#TimesNewRomanPSMT-30"/>
       <use xlink:href="#TimesNewRomanPSMT-2e" transform="translate(50 0)"/>
       <use xlink:href="#TimesNewRomanPSMT-30" transform="translate(75 0)"/>
       <use xlink:href="#TimesNewRomanPSMT-32" transform="translate(125 0)"/>
      </g>
     </g>
    </g>
    <g id="xtick_4">
     <g id="line2d_9">
      <g>
       <use xlink:href="#mb9153c5121" x="315.730944" y="132.37" style="stroke: #000000; stroke-width: 0.8"/>
      </g>
     </g>
     <g id="text_11">
      <!-- 0.04 -->
      <g transform="translate(306.543444 146.660938) scale(0.105 -0.105)">
       <use xlink:href="#TimesNewRomanPSMT-30"/>
       <use xlink:href="#TimesNewRomanPSMT-2e" transform="translate(50 0)"/>
       <use xlink:href="#TimesNewRomanPSMT-30" transform="translate(75 0)"/>
       <use xlink:href="#TimesNewRomanPSMT-34" transform="translate(125 0)"/>
      </g>
     </g>
    </g>
    <g id="text_12">
     <!-- sync_every_rate -->
     <g transform="translate(249.314901 160.178203) scale(0.105 -0.105)">
      <defs>
       <path id="TimesNewRomanPSMT-73" d="M 2050 2947 
L 2050 1972 
L 1947 1972 
Q 1828 2431 1642 2597 
Q 1456 2763 1169 2763 
Q 950 2763 815 2647 
Q 681 2531 681 2391 
Q 681 2216 781 2091 
Q 878 1963 1175 1819 
L 1631 1597 
Q 2266 1288 2266 781 
Q 2266 391 1970 151 
Q 1675 -88 1309 -88 
Q 1047 -88 709 6 
Q 606 38 541 38 
Q 469 38 428 -44 
L 325 -44 
L 325 978 
L 428 978 
Q 516 541 762 319 
Q 1009 97 1316 97 
Q 1531 97 1667 223 
Q 1803 350 1803 528 
Q 1803 744 1651 891 
Q 1500 1038 1047 1263 
Q 594 1488 453 1669 
Q 313 1847 313 2119 
Q 313 2472 555 2709 
Q 797 2947 1181 2947 
Q 1350 2947 1591 2875 
Q 1750 2828 1803 2828 
Q 1853 2828 1881 2850 
Q 1909 2872 1947 2947 
L 2050 2947 
z
" transform="scale(0.015625)"/>
       <path id="TimesNewRomanPSMT-79" d="M 38 2863 
L 1372 2863 
L 1372 2747 
L 1306 2747 
Q 1166 2747 1095 2686 
Q 1025 2625 1025 2534 
Q 1025 2413 1128 2197 
L 1825 753 
L 2466 2334 
Q 2519 2463 2519 2588 
Q 2519 2644 2497 2672 
Q 2472 2706 2419 2726 
Q 2366 2747 2231 2747 
L 2231 2863 
L 3163 2863 
L 3163 2747 
Q 3047 2734 2984 2696 
Q 2922 2659 2847 2556 
Q 2819 2513 2741 2316 
L 1575 -541 
Q 1406 -956 1132 -1168 
Q 859 -1381 606 -1381 
Q 422 -1381 303 -1275 
Q 184 -1169 184 -1031 
Q 184 -900 270 -820 
Q 356 -741 506 -741 
Q 609 -741 788 -809 
Q 913 -856 944 -856 
Q 1038 -856 1148 -759 
Q 1259 -663 1372 -384 
L 1575 113 
L 547 2272 
Q 500 2369 397 2513 
Q 319 2622 269 2659 
Q 197 2709 38 2747 
L 38 2863 
z
" transform="scale(0.015625)"/>
       <path id="TimesNewRomanPSMT-63" d="M 2631 1088 
Q 2516 522 2178 217 
Q 1841 -88 1431 -88 
Q 944 -88 581 321 
Q 219 731 219 1428 
Q 219 2103 620 2525 
Q 1022 2947 1584 2947 
Q 2006 2947 2278 2723 
Q 2550 2500 2550 2259 
Q 2550 2141 2473 2067 
Q 2397 1994 2259 1994 
Q 2075 1994 1981 2113 
Q 1928 2178 1911 2362 
Q 1894 2547 1784 2644 
Q 1675 2738 1481 2738 
Q 1169 2738 978 2506 
Q 725 2200 725 1697 
Q 725 1184 976 792 
Q 1228 400 1656 400 
Q 1963 400 2206 609 
Q 2378 753 2541 1131 
L 2631 1088 
z
" transform="scale(0.015625)"/>
       <path id="TimesNewRomanPSMT-76" d="M 53 2863 
L 1400 2863 
L 1400 2747 
L 1313 2747 
Q 1191 2747 1127 2687 
Q 1063 2628 1063 2528 
Q 1063 2419 1128 2269 
L 1794 688 
L 2463 2328 
Q 2534 2503 2534 2594 
Q 2534 2638 2509 2666 
Q 2475 2713 2422 2730 
Q 2369 2747 2206 2747 
L 2206 2863 
L 3141 2863 
L 3141 2747 
Q 2978 2734 2916 2681 
Q 2806 2588 2719 2369 
L 1703 -88 
L 1575 -88 
L 553 2328 
Q 484 2497 421 2570 
Q 359 2644 263 2694 
Q 209 2722 53 2747 
L 53 2863 
z
" transform="scale(0.015625)"/>
       <path id="TimesNewRomanPSMT-74" d="M 1031 3803 
L 1031 2863 
L 1700 2863 
L 1700 2644 
L 1031 2644 
L 1031 788 
Q 1031 509 1111 412 
Q 1191 316 1316 316 
Q 1419 316 1516 380 
Q 1613 444 1666 569 
L 1788 569 
Q 1678 263 1478 108 
Q 1278 -47 1066 -47 
Q 922 -47 784 33 
Q 647 113 581 261 
Q 516 409 516 719 
L 516 2644 
L 63 2644 
L 63 2747 
Q 234 2816 414 2980 
Q 594 3144 734 3369 
Q 806 3488 934 3803 
L 1031 3803 
z
" transform="scale(0.015625)"/>
      </defs>
      <use xlink:href="#TimesNewRomanPSMT-73"/>
      <use xlink:href="#TimesNewRomanPSMT-79" transform="translate(38.916016 0)"/>
      <use xlink:href="#TimesNewRomanPSMT-6e" transform="translate(88.916016 0)"/>
      <use xlink:href="#TimesNewRomanPSMT-63" transform="translate(138.916016 0)"/>
      <use xlink:href="#TimesNewRomanPSMT-5f" transform="translate(183.300781 0)"/>
      <use xlink:href="#TimesNewRomanPSMT-65" transform="translate(233.300781 0)"/>
      <use xlink:href="#TimesNewRomanPSMT-76" transform="translate(277.685547 0)"/>
      <use xlink:href="#TimesNewRomanPSMT-65" transform="translate(327.685547 0)"/>
      <use xlink:href="#TimesNewRomanPSMT-72" transform="translate(372.070312 0)"/>
      <use xlink:href="#TimesNewRomanPSMT-79" transform="translate(405.371094 0)"/>
      <use xlink:href="#TimesNewRomanPSMT-5f" transform="translate(455.371094 0)"/>
      <use xlink:href="#TimesNewRomanPSMT-72" transform="translate(505.371094 0)"/>
      <use xlink:href="#TimesNewRomanPSMT-61" transform="translate(538.671875 0)"/>
      <use xlink:href="#TimesNewRomanPSMT-74" transform="translate(583.056641 0)"/>
      <use xlink:href="#TimesNewRomanPSMT-65" transform="translate(610.839844 0)"/>
     </g>
    </g>
   </g>
   <g id="matplotlib.axis_4">
    <g id="ytick_4">
     <g id="line2d_10">
      <g>
       <use xlink:href="#mea8b143d61" x="218.771053" y="117.523129" style="stroke: #000000; stroke-width: 0.8"/>
      </g>
     </g>
     <g id="text_13">
      <!-- 23 -->
      <g transform="translate(201.271053 121.168597) scale(0.105 -0.105)">
       <use xlink:href="#TimesNewRomanPSMT-32"/>
       <use xlink:href="#TimesNewRomanPSMT-33" transform="translate(50 0)"/>
      </g>
     </g>
    </g>
    <g id="ytick_5">
     <g id="line2d_11">
      <g>
       <use xlink:href="#mea8b143d61" x="218.771053" y="79.687065" style="stroke: #000000; stroke-width: 0.8"/>
      </g>
     </g>
     <g id="text_14">
      <!-- 24 -->
      <g transform="translate(201.271053 83.332534) scale(0.105 -0.105)">
       <use xlink:href="#TimesNewRomanPSMT-32"/>
       <use xlink:href="#TimesNewRomanPSMT-34" transform="translate(50 0)"/>
      </g>
     </g>
    </g>
    <g id="ytick_6">
     <g id="line2d_12">
      <g>
       <use xlink:href="#mea8b143d61" x="218.771053" y="41.851002" style="stroke: #000000; stroke-width: 0.8"/>
      </g>
     </g>
     <g id="text_15">
      <!-- 25 -->
      <g transform="translate(201.271053 45.49647) scale(0.105 -0.105)">
       <use xlink:href="#TimesNewRomanPSMT-32"/>
       <use xlink:href="#TimesNewRomanPSMT-35" transform="translate(50 0)"/>
      </g>
     </g>
    </g>
    <g id="text_16">
     <!-- mean_reward -->
     <g transform="translate(195.00535 100.423203) rotate(-90) scale(0.105 -0.105)">
      <use xlink:href="#TimesNewRomanPSMT-6d"/>
      <use xlink:href="#TimesNewRomanPSMT-65" transform="translate(77.783203 0)"/>
      <use xlink:href="#TimesNewRomanPSMT-61" transform="translate(122.167969 0)"/>
      <use xlink:href="#TimesNewRomanPSMT-6e" transform="translate(166.552734 0)"/>
      <use xlink:href="#TimesNewRomanPSMT-5f" transform="translate(216.552734 0)"/>
      <use xlink:href="#TimesNewRomanPSMT-72" transform="translate(266.552734 0)"/>
      <use xlink:href="#TimesNewRomanPSMT-65" transform="translate(299.853516 0)"/>
      <use xlink:href="#TimesNewRomanPSMT-77" transform="translate(344.238281 0)"/>
      <use xlink:href="#TimesNewRomanPSMT-61" transform="translate(416.455078 0)"/>
      <use xlink:href="#TimesNewRomanPSMT-72" transform="translate(460.839844 0)"/>
      <use xlink:href="#TimesNewRomanPSMT-64" transform="translate(494.140625 0)"/>
     </g>
    </g>
   </g>
   <g id="line2d_13">
    <path d="M 224.675096 55.736837 
L 228.530733 35.777131 
L 229.62168 44.358908 
L 230.029326 53.70212 
L 231.783749 55.058799 
L 233.318439 58.986028 
L 236.278946 58.92596 
L 238.516985 56.995929 
L 239.467934 55.59118 
L 241.539729 52.429278 
L 248.592733 54.539488 
L 251.588139 52.252556 
L 254.784283 55.045134 
L 255.365884 59.591528 
L 256.66982 63.733303 
L 259.419421 67.369685 
L 262.407358 69.105672 
L 264.330303 76.699334 
L 264.874786 79.902938 
L 266.148254 80.326138 
L 267.669702 76.776399 
L 270.457363 72.083728 
L 273.17775 73.026791 
L 275.875604 69.031844 
L 278.500901 71.371517 
L 284.544473 77.37106 
L 287.36438 75.971113 
L 290.628626 76.100585 
L 294.763533 75.221689 
L 295.521695 73.21171 
L 296.505005 69.935299 
L 301.390914 66.26164 
L 302.170141 68.608851 
L 305.436598 66.725024 
L 306.290555 60.781972 
L 307.29079 67.856021 
L 311.579296 74.426481 
L 314.684855 73.196409 
L 316.258084 73.364819 
L 316.95939 70.12975 
L 330.856942 74.140014 
L 333.339799 70.182692 
L 335.980328 66.006858 
L 336.625924 65.732279 
L 338.35903 64.954176 
L 338.42282 68.60861 
L 341.128557 69.192474 
L 341.801713 67.565395 
L 342.288796 64.163331 
L 342.755957 63.901491 
" clip-path="url(#pef87360054)" style="fill: none; stroke: #ffa500; stroke-width: 1.5; stroke-linecap: square"/>
   </g>
   <g id="patch_9">
    <path d="M 218.771053 132.37 
L 218.771053 11.34 
" style="fill: none; stroke: #000000; stroke-width: 0.8; stroke-linejoin: miter; stroke-linecap: square"/>
   </g>
   <g id="patch_10">
    <path d="M 348.66 132.37 
L 348.66 11.34 
" style="fill: none; stroke: #000000; stroke-width: 0.8; stroke-linejoin: miter; stroke-linecap: square"/>
   </g>
   <g id="patch_11">
    <path d="M 218.771053 132.37 
L 348.66 132.37 
" style="fill: none; stroke: #000000; stroke-width: 0.8; stroke-linejoin: miter; stroke-linecap: square"/>
   </g>
   <g id="patch_12">
    <path d="M 218.771053 11.34 
L 348.66 11.34 
" style="fill: none; stroke: #000000; stroke-width: 0.8; stroke-linejoin: miter; stroke-linecap: square"/>
   </g>
   <g id="legend_2">
    <g id="patch_13">
     <path d="M 290.220937 34.586016 
L 341.31 34.586016 
Q 343.41 34.586016 343.41 32.486016 
L 343.41 18.69 
Q 343.41 16.59 341.31 16.59 
L 290.220937 16.59 
Q 288.120937 16.59 288.120937 18.69 
L 288.120937 32.486016 
Q 288.120937 34.586016 290.220937 34.586016 
z
" style="fill: #ffffff; opacity: 0.8; stroke: #cccccc; stroke-linejoin: miter"/>
    </g>
    <g id="line2d_14">
     <path d="M 292.320937 24.465 
L 302.820937 24.465 
L 313.320937 24.465 
" style="fill: none; stroke: #ffa500; stroke-width: 1.5; stroke-linecap: square"/>
    </g>
    <g id="text_17">
     <!-- ema -->
     <g transform="translate(321.720937 28.14) scale(0.105 -0.105)">
      <use xlink:href="#TimesNewRomanPSMT-65"/>
      <use xlink:href="#TimesNewRomanPSMT-6d" transform="translate(44.384766 0)"/>
      <use xlink:href="#TimesNewRomanPSMT-61" transform="translate(122.167969 0)"/>
     </g>
    </g>
   </g>
  </g>
  <g id="axes_3">
   <g id="patch_14">
    <path d="M 43.04 295.9 
L 172.928947 295.9 
L 172.928947 174.87 
L 43.04 174.87 
z
" style="fill: #ffffff"/>
   </g>
   <g id="PathCollection_3">
    <g clip-path="url(#p760754b49b)">
     <use xlink:href="#mb2e4c0989c" x="139.513726" y="283.777325" style="fill: #1f77b4; stroke: #1f77b4"/>
     <use xlink:href="#mb2e4c0989c" x="74.118134" y="198.38133" style="fill: #1f77b4; stroke: #1f77b4"/>
     <use xlink:href="#mb2e4c0989c" x="130.546353" y="215.861591" style="fill: #1f77b4; stroke: #1f77b4"/>
     <use xlink:href="#mb2e4c0989c" x="151.557403" y="222.066706" style="fill: #1f77b4; stroke: #1f77b4"/>
     <use xlink:href="#mb2e4c0989c" x="110.346848" y="212.456346" style="fill: #1f77b4; stroke: #1f77b4"/>
     <use xlink:href="#mb2e4c0989c" x="157.414056" y="227.590771" style="fill: #1f77b4; stroke: #1f77b4"/>
     <use xlink:href="#mb2e4c0989c" x="122.641259" y="222.596411" style="fill: #1f77b4; stroke: #1f77b4"/>
     <use xlink:href="#mb2e4c0989c" x="76.554836" y="222.142378" style="fill: #1f77b4; stroke: #1f77b4"/>
     <use xlink:href="#mb2e4c0989c" x="79.247604" y="243.898114" style="fill: #1f77b4; stroke: #1f77b4"/>
     <use xlink:href="#mb2e4c0989c" x="135.220184" y="234.855295" style="fill: #1f77b4; stroke: #1f77b4"/>
     <use xlink:href="#mb2e4c0989c" x="155.500818" y="251.578835" style="fill: #1f77b4; stroke: #1f77b4"/>
     <use xlink:href="#mb2e4c0989c" x="160.235281" y="249.42218" style="fill: #1f77b4; stroke: #1f77b4"/>
     <use xlink:href="#mb2e4c0989c" x="48.944043" y="180.371364" style="fill: #1f77b4; stroke: #1f77b4"/>
     <use xlink:href="#mb2e4c0989c" x="75.652225" y="239.168606" style="fill: #1f77b4; stroke: #1f77b4"/>
     <use xlink:href="#mb2e4c0989c" x="136.380422" y="264.934966" style="fill: #1f77b4; stroke: #1f77b4"/>
     <use xlink:href="#mb2e4c0989c" x="154.502905" y="236.217393" style="fill: #1f77b4; stroke: #1f77b4"/>
     <use xlink:href="#mb2e4c0989c" x="79.111619" y="286.690702" style="fill: #1f77b4; stroke: #1f77b4"/>
     <use xlink:href="#mb2e4c0989c" x="160.648433" y="227.21241" style="fill: #1f77b4; stroke: #1f77b4"/>
     <use xlink:href="#mb2e4c0989c" x="57.670345" y="202.959494" style="fill: #1f77b4; stroke: #1f77b4"/>
     <use xlink:href="#mb2e4c0989c" x="73.584795" y="219.266837" style="fill: #1f77b4; stroke: #1f77b4"/>
     <use xlink:href="#mb2e4c0989c" x="100.355935" y="254.000343" style="fill: #1f77b4; stroke: #1f77b4"/>
     <use xlink:href="#mb2e4c0989c" x="119.361099" y="246.735819" style="fill: #1f77b4; stroke: #1f77b4"/>
     <use xlink:href="#mb2e4c0989c" x="162.832782" y="204.208084" style="fill: #1f77b4; stroke: #1f77b4"/>
     <use xlink:href="#mb2e4c0989c" x="66.591057" y="222.672083" style="fill: #1f77b4; stroke: #1f77b4"/>
     <use xlink:href="#mb2e4c0989c" x="102.524377" y="229.369066" style="fill: #1f77b4; stroke: #1f77b4"/>
     <use xlink:href="#mb2e4c0989c" x="98.145021" y="237.087623" style="fill: #1f77b4; stroke: #1f77b4"/>
     <use xlink:href="#mb2e4c0989c" x="150.611493" y="243.179229" style="fill: #1f77b4; stroke: #1f77b4"/>
     <use xlink:href="#mb2e4c0989c" x="116.670206" y="202.959494" style="fill: #1f77b4; stroke: #1f77b4"/>
     <use xlink:href="#mb2e4c0989c" x="121.69674" y="222.21805" style="fill: #1f77b4; stroke: #1f77b4"/>
     <use xlink:href="#mb2e4c0989c" x="155.623353" y="199.932608" style="fill: #1f77b4; stroke: #1f77b4"/>
     <use xlink:href="#mb2e4c0989c" x="63.161271" y="204.283756" style="fill: #1f77b4; stroke: #1f77b4"/>
     <use xlink:href="#mb2e4c0989c" x="131.520299" y="216.35346" style="fill: #1f77b4; stroke: #1f77b4"/>
     <use xlink:href="#mb2e4c0989c" x="142.408837" y="250.519425" style="fill: #1f77b4; stroke: #1f77b4"/>
     <use xlink:href="#mb2e4c0989c" x="85.635792" y="218.926312" style="fill: #1f77b4; stroke: #1f77b4"/>
     <use xlink:href="#mb2e4c0989c" x="164.75561" y="181.695626" style="fill: #1f77b4; stroke: #1f77b4"/>
     <use xlink:href="#mb2e4c0989c" x="113.170959" y="238.147033" style="fill: #1f77b4; stroke: #1f77b4"/>
     <use xlink:href="#mb2e4c0989c" x="119.302161" y="259.448736" style="fill: #1f77b4; stroke: #1f77b4"/>
     <use xlink:href="#mb2e4c0989c" x="102.533341" y="252.940933" style="fill: #1f77b4; stroke: #1f77b4"/>
     <use xlink:href="#mb2e4c0989c" x="102.875228" y="267.545654" style="fill: #1f77b4; stroke: #1f77b4"/>
     <use xlink:href="#mb2e4c0989c" x="163.896689" y="290.398636" style="fill: #1f77b4; stroke: #1f77b4"/>
     <use xlink:href="#mb2e4c0989c" x="151.420242" y="225.471951" style="fill: #1f77b4; stroke: #1f77b4"/>
     <use xlink:href="#mb2e4c0989c" x="149.150213" y="212.077985" style="fill: #1f77b4; stroke: #1f77b4"/>
     <use xlink:href="#mb2e4c0989c" x="167.024904" y="283.92867" style="fill: #1f77b4; stroke: #1f77b4"/>
     <use xlink:href="#mb2e4c0989c" x="166.089393" y="209.580805" style="fill: #1f77b4; stroke: #1f77b4"/>
     <use xlink:href="#mb2e4c0989c" x="63.992652" y="240.568541" style="fill: #1f77b4; stroke: #1f77b4"/>
     <use xlink:href="#mb2e4c0989c" x="116.817303" y="209.467296" style="fill: #1f77b4; stroke: #1f77b4"/>
     <use xlink:href="#mb2e4c0989c" x="148.04745" y="229.406902" style="fill: #1f77b4; stroke: #1f77b4"/>
     <use xlink:href="#mb2e4c0989c" x="65.826587" y="232.358115" style="fill: #1f77b4; stroke: #1f77b4"/>
     <use xlink:href="#mb2e4c0989c" x="110.4969" y="202.808149" style="fill: #1f77b4; stroke: #1f77b4"/>
     <use xlink:href="#mb2e4c0989c" x="143.244735" y="202.240608" style="fill: #1f77b4; stroke: #1f77b4"/>
    </g>
   </g>
   <g id="matplotlib.axis_5">
    <g id="xtick_5">
     <g id="line2d_15">
      <g>
       <use xlink:href="#mb9153c5121" x="71.448863" y="295.9" style="stroke: #000000; stroke-width: 0.8"/>
      </g>
     </g>
     <g id="text_18">
      <!-- 0.6 -->
      <g transform="translate(64.886363 310.190938) scale(0.105 -0.105)">
       <defs>
        <path id="TimesNewRomanPSMT-36" d="M 2869 4325 
L 2869 4209 
Q 2456 4169 2195 4045 
Q 1934 3922 1679 3669 
Q 1425 3416 1258 3105 
Q 1091 2794 978 2366 
Q 1428 2675 1881 2675 
Q 2316 2675 2634 2325 
Q 2953 1975 2953 1425 
Q 2953 894 2631 456 
Q 2244 -75 1606 -75 
Q 1172 -75 869 213 
Q 275 772 275 1663 
Q 275 2231 503 2743 
Q 731 3256 1154 3653 
Q 1578 4050 1965 4187 
Q 2353 4325 2688 4325 
L 2869 4325 
z
M 925 2138 
Q 869 1716 869 1456 
Q 869 1156 980 804 
Q 1091 453 1309 247 
Q 1469 100 1697 100 
Q 1969 100 2183 356 
Q 2397 613 2397 1088 
Q 2397 1622 2184 2012 
Q 1972 2403 1581 2403 
Q 1463 2403 1327 2353 
Q 1191 2303 925 2138 
z
" transform="scale(0.015625)"/>
       </defs>
       <use xlink:href="#TimesNewRomanPSMT-30"/>
       <use xlink:href="#TimesNewRomanPSMT-2e" transform="translate(50 0)"/>
       <use xlink:href="#TimesNewRomanPSMT-36" transform="translate(75 0)"/>
      </g>
     </g>
    </g>
    <g id="xtick_6">
     <g id="line2d_16">
      <g>
       <use xlink:href="#mb9153c5121" x="120.282385" y="295.9" style="stroke: #000000; stroke-width: 0.8"/>
      </g>
     </g>
     <g id="text_19">
      <!-- 0.8 -->
      <g transform="translate(113.719885 310.190938) scale(0.105 -0.105)">
       <defs>
        <path id="TimesNewRomanPSMT-38" d="M 1228 2134 
Q 725 2547 579 2797 
Q 434 3047 434 3316 
Q 434 3728 753 4026 
Q 1072 4325 1600 4325 
Q 2113 4325 2425 4047 
Q 2738 3769 2738 3413 
Q 2738 3175 2569 2928 
Q 2400 2681 1866 2347 
Q 2416 1922 2594 1678 
Q 2831 1359 2831 1006 
Q 2831 559 2490 242 
Q 2150 -75 1597 -75 
Q 994 -75 656 303 
Q 388 606 388 966 
Q 388 1247 577 1523 
Q 766 1800 1228 2134 
z
M 1719 2469 
Q 2094 2806 2194 3001 
Q 2294 3197 2294 3444 
Q 2294 3772 2109 3958 
Q 1925 4144 1606 4144 
Q 1288 4144 1088 3959 
Q 888 3775 888 3528 
Q 888 3366 970 3203 
Q 1053 3041 1206 2894 
L 1719 2469 
z
M 1375 2016 
Q 1116 1797 991 1539 
Q 866 1281 866 981 
Q 866 578 1086 336 
Q 1306 94 1647 94 
Q 1984 94 2187 284 
Q 2391 475 2391 747 
Q 2391 972 2272 1150 
Q 2050 1481 1375 2016 
z
" transform="scale(0.015625)"/>
       </defs>
       <use xlink:href="#TimesNewRomanPSMT-30"/>
       <use xlink:href="#TimesNewRomanPSMT-2e" transform="translate(50 0)"/>
       <use xlink:href="#TimesNewRomanPSMT-38" transform="translate(75 0)"/>
      </g>
     </g>
    </g>
    <g id="xtick_7">
     <g id="line2d_17">
      <g>
       <use xlink:href="#mb9153c5121" x="169.115907" y="295.9" style="stroke: #000000; stroke-width: 0.8"/>
      </g>
     </g>
     <g id="text_20">
      <!-- 1.0 -->
      <g transform="translate(162.553407 310.190938) scale(0.105 -0.105)">
       <use xlink:href="#TimesNewRomanPSMT-31"/>
       <use xlink:href="#TimesNewRomanPSMT-2e" transform="translate(50 0)"/>
       <use xlink:href="#TimesNewRomanPSMT-30" transform="translate(75 0)"/>
      </g>
     </g>
    </g>
    <g id="text_21">
     <!-- gamma -->
     <g transform="translate(92.531427 323.708203) scale(0.105 -0.105)">
      <defs>
       <path id="TimesNewRomanPSMT-67" d="M 966 1044 
Q 703 1172 562 1401 
Q 422 1631 422 1909 
Q 422 2334 742 2640 
Q 1063 2947 1563 2947 
Q 1972 2947 2272 2747 
L 2878 2747 
Q 3013 2747 3034 2739 
Q 3056 2731 3066 2713 
Q 3084 2684 3084 2613 
Q 3084 2531 3069 2500 
Q 3059 2484 3036 2475 
Q 3013 2466 2878 2466 
L 2506 2466 
Q 2681 2241 2681 1891 
Q 2681 1491 2375 1206 
Q 2069 922 1553 922 
Q 1341 922 1119 984 
Q 981 866 932 777 
Q 884 688 884 625 
Q 884 572 936 522 
Q 988 472 1138 450 
Q 1225 438 1575 428 
Q 2219 413 2409 384 
Q 2700 344 2873 169 
Q 3047 -6 3047 -263 
Q 3047 -616 2716 -925 
Q 2228 -1381 1444 -1381 
Q 841 -1381 425 -1109 
Q 191 -953 191 -784 
Q 191 -709 225 -634 
Q 278 -519 444 -313 
Q 466 -284 763 25 
Q 600 122 533 198 
Q 466 275 466 372 
Q 466 481 555 628 
Q 644 775 966 1044 
z
M 1509 2797 
Q 1278 2797 1122 2612 
Q 966 2428 966 2047 
Q 966 1553 1178 1281 
Q 1341 1075 1591 1075 
Q 1828 1075 1981 1253 
Q 2134 1431 2134 1813 
Q 2134 2309 1919 2591 
Q 1759 2797 1509 2797 
z
M 934 0 
Q 788 -159 713 -296 
Q 638 -434 638 -550 
Q 638 -700 819 -813 
Q 1131 -1006 1722 -1006 
Q 2284 -1006 2551 -807 
Q 2819 -609 2819 -384 
Q 2819 -222 2659 -153 
Q 2497 -84 2016 -72 
Q 1313 -53 934 0 
z
" transform="scale(0.015625)"/>
      </defs>
      <use xlink:href="#TimesNewRomanPSMT-67"/>
      <use xlink:href="#TimesNewRomanPSMT-61" transform="translate(50 0)"/>
      <use xlink:href="#TimesNewRomanPSMT-6d" transform="translate(94.384766 0)"/>
      <use xlink:href="#TimesNewRomanPSMT-6d" transform="translate(172.167969 0)"/>
      <use xlink:href="#TimesNewRomanPSMT-61" transform="translate(249.951172 0)"/>
     </g>
    </g>
   </g>
   <g id="matplotlib.axis_6">
    <g id="ytick_7">
     <g id="line2d_18">
      <g>
       <use xlink:href="#mea8b143d61" x="43.04" y="281.053129" style="stroke: #000000; stroke-width: 0.8"/>
      </g>
     </g>
     <g id="text_22">
      <!-- 23 -->
      <g transform="translate(25.54 284.698597) scale(0.105 -0.105)">
       <use xlink:href="#TimesNewRomanPSMT-32"/>
       <use xlink:href="#TimesNewRomanPSMT-33" transform="translate(50 0)"/>
      </g>
     </g>
    </g>
    <g id="ytick_8">
     <g id="line2d_19">
      <g>
       <use xlink:href="#mea8b143d61" x="43.04" y="243.217065" style="stroke: #000000; stroke-width: 0.8"/>
      </g>
     </g>
     <g id="text_23">
      <!-- 24 -->
      <g transform="translate(25.54 246.862534) scale(0.105 -0.105)">
       <use xlink:href="#TimesNewRomanPSMT-32"/>
       <use xlink:href="#TimesNewRomanPSMT-34" transform="translate(50 0)"/>
      </g>
     </g>
    </g>
    <g id="ytick_9">
     <g id="line2d_20">
      <g>
       <use xlink:href="#mea8b143d61" x="43.04" y="205.381002" style="stroke: #000000; stroke-width: 0.8"/>
      </g>
     </g>
     <g id="text_24">
      <!-- 25 -->
      <g transform="translate(25.54 209.02647) scale(0.105 -0.105)">
       <use xlink:href="#TimesNewRomanPSMT-32"/>
       <use xlink:href="#TimesNewRomanPSMT-35" transform="translate(50 0)"/>
      </g>
     </g>
    </g>
    <g id="text_25">
     <!-- mean_reward -->
     <g transform="translate(19.274297 263.953203) rotate(-90) scale(0.105 -0.105)">
      <use xlink:href="#TimesNewRomanPSMT-6d"/>
      <use xlink:href="#TimesNewRomanPSMT-65" transform="translate(77.783203 0)"/>
      <use xlink:href="#TimesNewRomanPSMT-61" transform="translate(122.167969 0)"/>
      <use xlink:href="#TimesNewRomanPSMT-6e" transform="translate(166.552734 0)"/>
      <use xlink:href="#TimesNewRomanPSMT-5f" transform="translate(216.552734 0)"/>
      <use xlink:href="#TimesNewRomanPSMT-72" transform="translate(266.552734 0)"/>
      <use xlink:href="#TimesNewRomanPSMT-65" transform="translate(299.853516 0)"/>
      <use xlink:href="#TimesNewRomanPSMT-77" transform="translate(344.238281 0)"/>
      <use xlink:href="#TimesNewRomanPSMT-61" transform="translate(416.455078 0)"/>
      <use xlink:href="#TimesNewRomanPSMT-72" transform="translate(460.839844 0)"/>
      <use xlink:href="#TimesNewRomanPSMT-64" transform="translate(494.140625 0)"/>
     </g>
    </g>
   </g>
   <g id="line2d_21">
    <path d="M 48.944043 180.371364 
L 57.670345 192.371308 
L 63.161271 196.848157 
L 63.992652 209.907389 
L 65.826587 215.585385 
L 66.591057 217.164132 
L 73.584795 217.588003 
L 74.118134 214.016066 
L 75.652225 218.394607 
L 76.554836 219.012167 
L 79.111619 229.662293 
L 79.247604 231.816917 
L 85.635792 229.92951 
L 98.145021 230.948271 
L 100.355935 234.150095 
L 102.524377 233.499849 
L 102.533341 236.096276 
L 102.875228 240.230689 
L 110.346848 236.629161 
L 110.4969 232.295662 
L 113.170959 233.037622 
L 116.670206 229.258279 
L 116.817303 226.791271 
L 119.302161 230.833805 
L 119.361099 232.79024 
L 121.69674 231.496501 
L 122.641259 230.412503 
L 130.546353 228.647577 
L 131.520299 227.161803 
L 135.220184 228.08861 
L 136.380422 232.514876 
L 139.513726 238.657676 
L 142.408837 240.075977 
L 143.244735 235.560707 
L 148.04745 234.827553 
L 149.150213 232.121245 
L 150.611493 233.434986 
L 151.420242 232.490034 
L 151.557403 231.254385 
L 154.502905 231.842204 
L 155.500818 234.177957 
L 155.623353 230.127985 
L 157.414056 229.82811 
L 160.235281 232.142686 
L 160.648433 231.56057 
L 162.832782 228.332433 
L 163.896689 235.654749 
L 164.75561 229.290965 
L 166.089393 226.96708 
L 167.024904 233.6813 
" clip-path="url(#p760754b49b)" style="fill: none; stroke: #ffa500; stroke-width: 1.5; stroke-linecap: square"/>
   </g>
   <g id="patch_15">
    <path d="M 43.04 295.9 
L 43.04 174.87 
" style="fill: none; stroke: #000000; stroke-width: 0.8; stroke-linejoin: miter; stroke-linecap: square"/>
   </g>
   <g id="patch_16">
    <path d="M 172.928947 295.9 
L 172.928947 174.87 
" style="fill: none; stroke: #000000; stroke-width: 0.8; stroke-linejoin: miter; stroke-linecap: square"/>
   </g>
   <g id="patch_17">
    <path d="M 43.04 295.9 
L 172.928947 295.9 
" style="fill: none; stroke: #000000; stroke-width: 0.8; stroke-linejoin: miter; stroke-linecap: square"/>
   </g>
   <g id="patch_18">
    <path d="M 43.04 174.87 
L 172.928947 174.87 
" style="fill: none; stroke: #000000; stroke-width: 0.8; stroke-linejoin: miter; stroke-linecap: square"/>
   </g>
   <g id="legend_3">
    <g id="patch_19">
     <path d="M 82.439942 290.65 
L 133.529005 290.65 
Q 135.629005 290.65 135.629005 288.55 
L 135.629005 274.753984 
Q 135.629005 272.653984 133.529005 272.653984 
L 82.439942 272.653984 
Q 80.339942 272.653984 80.339942 274.753984 
L 80.339942 288.55 
Q 80.339942 290.65 82.439942 290.65 
z
" style="fill: #ffffff; opacity: 0.8; stroke: #cccccc; stroke-linejoin: miter"/>
    </g>
    <g id="line2d_22">
     <path d="M 84.539942 280.528984 
L 95.039942 280.528984 
L 105.539942 280.528984 
" style="fill: none; stroke: #ffa500; stroke-width: 1.5; stroke-linecap: square"/>
    </g>
    <g id="text_26">
     <!-- ema -->
     <g transform="translate(113.939942 284.203984) scale(0.105 -0.105)">
      <use xlink:href="#TimesNewRomanPSMT-65"/>
      <use xlink:href="#TimesNewRomanPSMT-6d" transform="translate(44.384766 0)"/>
      <use xlink:href="#TimesNewRomanPSMT-61" transform="translate(122.167969 0)"/>
     </g>
    </g>
   </g>
  </g>
  <g id="axes_4">
   <g id="patch_20">
    <path d="M 218.771053 295.9 
L 348.66 295.9 
L 348.66 174.87 
L 218.771053 174.87 
z
" style="fill: #ffffff"/>
   </g>
   <g id="PathCollection_4">
    <g clip-path="url(#pab7ec86a08)">
     <use xlink:href="#mb2e4c0989c" x="231.781062" y="283.777325" style="fill: #1f77b4; stroke: #1f77b4"/>
     <use xlink:href="#mb2e4c0989c" x="323.427728" y="198.38133" style="fill: #1f77b4; stroke: #1f77b4"/>
     <use xlink:href="#mb2e4c0989c" x="304.667976" y="215.861591" style="fill: #1f77b4; stroke: #1f77b4"/>
     <use xlink:href="#mb2e4c0989c" x="298.00867" y="222.066706" style="fill: #1f77b4; stroke: #1f77b4"/>
     <use xlink:href="#mb2e4c0989c" x="308.322473" y="212.456346" style="fill: #1f77b4; stroke: #1f77b4"/>
     <use xlink:href="#mb2e4c0989c" x="292.080264" y="227.590771" style="fill: #1f77b4; stroke: #1f77b4"/>
     <use xlink:href="#mb2e4c0989c" x="297.440193" y="222.596411" style="fill: #1f77b4; stroke: #1f77b4"/>
     <use xlink:href="#mb2e4c0989c" x="297.927459" y="222.142378" style="fill: #1f77b4; stroke: #1f77b4"/>
     <use xlink:href="#mb2e4c0989c" x="274.579284" y="243.898114" style="fill: #1f77b4; stroke: #1f77b4"/>
     <use xlink:href="#mb2e4c0989c" x="284.284004" y="234.855295" style="fill: #1f77b4; stroke: #1f77b4"/>
     <use xlink:href="#mb2e4c0989c" x="266.336362" y="251.578835" style="fill: #1f77b4; stroke: #1f77b4"/>
     <use xlink:href="#mb2e4c0989c" x="268.650877" y="249.42218" style="fill: #1f77b4; stroke: #1f77b4"/>
     <use xlink:href="#mb2e4c0989c" x="342.755957" y="180.371364" style="fill: #1f77b4; stroke: #1f77b4"/>
     <use xlink:href="#mb2e4c0989c" x="279.654974" y="239.168606" style="fill: #1f77b4; stroke: #1f77b4"/>
     <use xlink:href="#mb2e4c0989c" x="252.002613" y="264.934966" style="fill: #1f77b4; stroke: #1f77b4"/>
     <use xlink:href="#mb2e4c0989c" x="282.822205" y="236.217393" style="fill: #1f77b4; stroke: #1f77b4"/>
     <use xlink:href="#mb2e4c0989c" x="228.654437" y="286.690702" style="fill: #1f77b4; stroke: #1f77b4"/>
     <use xlink:href="#mb2e4c0989c" x="292.486319" y="227.21241" style="fill: #1f77b4; stroke: #1f77b4"/>
     <use xlink:href="#mb2e4c0989c" x="318.51446" y="202.959494" style="fill: #1f77b4; stroke: #1f77b4"/>
     <use xlink:href="#mb2e4c0989c" x="301.013479" y="219.266837" style="fill: #1f77b4; stroke: #1f77b4"/>
     <use xlink:href="#mb2e4c0989c" x="263.737609" y="254.000343" style="fill: #1f77b4; stroke: #1f77b4"/>
     <use xlink:href="#mb2e4c0989c" x="271.533869" y="246.735819" style="fill: #1f77b4; stroke: #1f77b4"/>
     <use xlink:href="#mb2e4c0989c" x="317.174477" y="204.208084" style="fill: #1f77b4; stroke: #1f77b4"/>
     <use xlink:href="#mb2e4c0989c" x="297.358982" y="222.672083" style="fill: #1f77b4; stroke: #1f77b4"/>
     <use xlink:href="#mb2e4c0989c" x="290.171805" y="229.369066" style="fill: #1f77b4; stroke: #1f77b4"/>
     <use xlink:href="#mb2e4c0989c" x="281.888278" y="237.087623" style="fill: #1f77b4; stroke: #1f77b4"/>
     <use xlink:href="#mb2e4c0989c" x="275.350789" y="243.179229" style="fill: #1f77b4; stroke: #1f77b4"/>
     <use xlink:href="#mb2e4c0989c" x="318.51446" y="202.959494" style="fill: #1f77b4; stroke: #1f77b4"/>
     <use xlink:href="#mb2e4c0989c" x="297.846248" y="222.21805" style="fill: #1f77b4; stroke: #1f77b4"/>
     <use xlink:href="#mb2e4c0989c" x="321.762902" y="199.932608" style="fill: #1f77b4; stroke: #1f77b4"/>
     <use xlink:href="#mb2e4c0989c" x="317.093266" y="204.283756" style="fill: #1f77b4; stroke: #1f77b4"/>
     <use xlink:href="#mb2e4c0989c" x="304.140104" y="216.35346" style="fill: #1f77b4; stroke: #1f77b4"/>
     <use xlink:href="#mb2e4c0989c" x="267.473317" y="250.519425" style="fill: #1f77b4; stroke: #1f77b4"/>
     <use xlink:href="#mb2e4c0989c" x="301.378929" y="218.926312" style="fill: #1f77b4; stroke: #1f77b4"/>
     <use xlink:href="#mb2e4c0989c" x="341.334764" y="181.695626" style="fill: #1f77b4; stroke: #1f77b4"/>
     <use xlink:href="#mb2e4c0989c" x="280.751323" y="238.147033" style="fill: #1f77b4; stroke: #1f77b4"/>
     <use xlink:href="#mb2e4c0989c" x="257.890414" y="259.448736" style="fill: #1f77b4; stroke: #1f77b4"/>
     <use xlink:href="#mb2e4c0989c" x="264.874564" y="252.940933" style="fill: #1f77b4; stroke: #1f77b4"/>
     <use xlink:href="#mb2e4c0989c" x="249.200832" y="267.545654" style="fill: #1f77b4; stroke: #1f77b4"/>
     <use xlink:href="#mb2e4c0989c" x="224.675096" y="290.398636" style="fill: #1f77b4; stroke: #1f77b4"/>
     <use xlink:href="#mb2e4c0989c" x="294.354173" y="225.471951" style="fill: #1f77b4; stroke: #1f77b4"/>
     <use xlink:href="#mb2e4c0989c" x="308.728529" y="212.077985" style="fill: #1f77b4; stroke: #1f77b4"/>
     <use xlink:href="#mb2e4c0989c" x="231.61864" y="283.92867" style="fill: #1f77b4; stroke: #1f77b4"/>
     <use xlink:href="#mb2e4c0989c" x="311.408493" y="209.580805" style="fill: #1f77b4; stroke: #1f77b4"/>
     <use xlink:href="#mb2e4c0989c" x="278.15257" y="240.568541" style="fill: #1f77b4; stroke: #1f77b4"/>
     <use xlink:href="#mb2e4c0989c" x="311.53031" y="209.467296" style="fill: #1f77b4; stroke: #1f77b4"/>
     <use xlink:href="#mb2e4c0989c" x="290.131199" y="229.406902" style="fill: #1f77b4; stroke: #1f77b4"/>
     <use xlink:href="#mb2e4c0989c" x="286.963968" y="232.358115" style="fill: #1f77b4; stroke: #1f77b4"/>
     <use xlink:href="#mb2e4c0989c" x="318.676882" y="202.808149" style="fill: #1f77b4; stroke: #1f77b4"/>
     <use xlink:href="#mb2e4c0989c" x="319.285965" y="202.240608" style="fill: #1f77b4; stroke: #1f77b4"/>
    </g>
   </g>
   <g id="matplotlib.axis_7">
    <g id="xtick_8">
     <g id="line2d_23">
      <g>
       <use xlink:href="#mb9153c5121" x="234.70466" y="295.9" style="stroke: #000000; stroke-width: 0.8"/>
      </g>
     </g>
     <g id="text_27">
      <!-- 23 -->
      <g transform="translate(229.45466 310.190938) scale(0.105 -0.105)">
       <use xlink:href="#TimesNewRomanPSMT-32"/>
       <use xlink:href="#TimesNewRomanPSMT-33" transform="translate(50 0)"/>
      </g>
     </g>
    </g>
    <g id="xtick_9">
     <g id="line2d_24">
      <g>
       <use xlink:href="#mb9153c5121" x="275.310183" y="295.9" style="stroke: #000000; stroke-width: 0.8"/>
      </g>
     </g>
     <g id="text_28">
      <!-- 24 -->
      <g transform="translate(270.060183 310.190938) scale(0.105 -0.105)">
       <use xlink:href="#TimesNewRomanPSMT-32"/>
       <use xlink:href="#TimesNewRomanPSMT-34" transform="translate(50 0)"/>
      </g>
     </g>
    </g>
    <g id="xtick_10">
     <g id="line2d_25">
      <g>
       <use xlink:href="#mb9153c5121" x="315.915706" y="295.9" style="stroke: #000000; stroke-width: 0.8"/>
      </g>
     </g>
     <g id="text_29">
      <!-- 25 -->
      <g transform="translate(310.665706 310.190938) scale(0.105 -0.105)">
       <use xlink:href="#TimesNewRomanPSMT-32"/>
       <use xlink:href="#TimesNewRomanPSMT-35" transform="translate(50 0)"/>
      </g>
     </g>
    </g>
    <g id="text_30">
     <!-- mean_reward -->
     <g transform="translate(255.147323 323.727891) scale(0.105 -0.105)">
      <use xlink:href="#TimesNewRomanPSMT-6d"/>
      <use xlink:href="#TimesNewRomanPSMT-65" transform="translate(77.783203 0)"/>
      <use xlink:href="#TimesNewRomanPSMT-61" transform="translate(122.167969 0)"/>
      <use xlink:href="#TimesNewRomanPSMT-6e" transform="translate(166.552734 0)"/>
      <use xlink:href="#TimesNewRomanPSMT-5f" transform="translate(216.552734 0)"/>
      <use xlink:href="#TimesNewRomanPSMT-72" transform="translate(266.552734 0)"/>
      <use xlink:href="#TimesNewRomanPSMT-65" transform="translate(299.853516 0)"/>
      <use xlink:href="#TimesNewRomanPSMT-77" transform="translate(344.238281 0)"/>
      <use xlink:href="#TimesNewRomanPSMT-61" transform="translate(416.455078 0)"/>
      <use xlink:href="#TimesNewRomanPSMT-72" transform="translate(460.839844 0)"/>
      <use xlink:href="#TimesNewRomanPSMT-64" transform="translate(494.140625 0)"/>
     </g>
    </g>
   </g>
   <g id="matplotlib.axis_8">
    <g id="ytick_10">
     <g id="line2d_26">
      <g>
       <use xlink:href="#mea8b143d61" x="218.771053" y="281.053129" style="stroke: #000000; stroke-width: 0.8"/>
      </g>
     </g>
     <g id="text_31">
      <!-- 23 -->
      <g transform="translate(201.271053 284.698597) scale(0.105 -0.105)">
       <use xlink:href="#TimesNewRomanPSMT-32"/>
       <use xlink:href="#TimesNewRomanPSMT-33" transform="translate(50 0)"/>
      </g>
     </g>
    </g>
    <g id="ytick_11">
     <g id="line2d_27">
      <g>
       <use xlink:href="#mea8b143d61" x="218.771053" y="243.217065" style="stroke: #000000; stroke-width: 0.8"/>
      </g>
     </g>
     <g id="text_32">
      <!-- 24 -->
      <g transform="translate(201.271053 246.862534) scale(0.105 -0.105)">
       <use xlink:href="#TimesNewRomanPSMT-32"/>
       <use xlink:href="#TimesNewRomanPSMT-34" transform="translate(50 0)"/>
      </g>
     </g>
    </g>
    <g id="ytick_12">
     <g id="line2d_28">
      <g>
       <use xlink:href="#mea8b143d61" x="218.771053" y="205.381002" style="stroke: #000000; stroke-width: 0.8"/>
      </g>
     </g>
     <g id="text_33">
      <!-- 25 -->
      <g transform="translate(201.271053 209.02647) scale(0.105 -0.105)">
       <use xlink:href="#TimesNewRomanPSMT-32"/>
       <use xlink:href="#TimesNewRomanPSMT-35" transform="translate(50 0)"/>
      </g>
     </g>
    </g>
    <g id="text_34">
     <!-- mean_reward -->
     <g transform="translate(195.00535 263.953203) rotate(-90) scale(0.105 -0.105)">
      <use xlink:href="#TimesNewRomanPSMT-6d"/>
      <use xlink:href="#TimesNewRomanPSMT-65" transform="translate(77.783203 0)"/>
      <use xlink:href="#TimesNewRomanPSMT-61" transform="translate(122.167969 0)"/>
      <use xlink:href="#TimesNewRomanPSMT-6e" transform="translate(166.552734 0)"/>
      <use xlink:href="#TimesNewRomanPSMT-5f" transform="translate(216.552734 0)"/>
      <use xlink:href="#TimesNewRomanPSMT-72" transform="translate(266.552734 0)"/>
      <use xlink:href="#TimesNewRomanPSMT-65" transform="translate(299.853516 0)"/>
      <use xlink:href="#TimesNewRomanPSMT-77" transform="translate(344.238281 0)"/>
      <use xlink:href="#TimesNewRomanPSMT-61" transform="translate(416.455078 0)"/>
      <use xlink:href="#TimesNewRomanPSMT-72" transform="translate(460.839844 0)"/>
      <use xlink:href="#TimesNewRomanPSMT-64" transform="translate(494.140625 0)"/>
     </g>
    </g>
   </g>
   <g id="patch_21">
    <path d="M 218.771053 295.9 
L 218.771053 174.87 
" style="fill: none; stroke: #000000; stroke-width: 0.8; stroke-linejoin: miter; stroke-linecap: square"/>
   </g>
   <g id="patch_22">
    <path d="M 348.66 295.9 
L 348.66 174.87 
" style="fill: none; stroke: #000000; stroke-width: 0.8; stroke-linejoin: miter; stroke-linecap: square"/>
   </g>
   <g id="patch_23">
    <path d="M 218.771053 295.9 
L 348.66 295.9 
" style="fill: none; stroke: #000000; stroke-width: 0.8; stroke-linejoin: miter; stroke-linecap: square"/>
   </g>
   <g id="patch_24">
    <path d="M 218.771053 174.87 
L 348.66 174.87 
" style="fill: none; stroke: #000000; stroke-width: 0.8; stroke-linejoin: miter; stroke-linecap: square"/>
   </g>
  </g>
 </g>
 <defs>
  <clipPath id="p654c8cf196">
   <rect x="43.04" y="11.34" width="129.888947" height="121.03"/>
  </clipPath>
  <clipPath id="pef87360054">
   <rect x="218.771053" y="11.34" width="129.888947" height="121.03"/>
  </clipPath>
  <clipPath id="p760754b49b">
   <rect x="43.04" y="174.87" width="129.888947" height="121.03"/>
  </clipPath>
  <clipPath id="pab7ec86a08">
   <rect x="218.771053" y="174.87" width="129.888947" height="121.03"/>
  </clipPath>
 </defs>
</svg>
